<?xml version="1.0" standalone="no"?><!DOCTYPE svg PUBLIC "-//W3C//DTD SVG 1.1//EN" "http://www.w3.org/Graphics/SVG/1.1/DTD/svg11.dtd"><svg t="1740471949151" class="icon" viewBox="0 0 1024 1024" version="1.1" xmlns="http://www.w3.org/2000/svg" p-id="1558" xmlns:xlink="http://www.w3.org/1999/xlink" width="200" height="200"><path d="M97.5 513.26a416 416 0 1 0 832 0 416 416 0 1 0-832 0z" fill="#D81E06" p-id="1559"></path><path d="M246 767.36s4-300.58 377.72-412.3v-98.42l58.52 74.48 86.45-31.92-42.56 83.8L778 454.81l-82.46-21.19S445.5 646.33 778 767.36H659.63s-216.79-133-27.93-305.9v-21.28s-215.46 167.58-18.62 327.18H512S367 586.48 631.7 413.58l-22.61-8s-254 159.6-137 361.76h-102.4s-51.87-234.06 216.79-363.07l-17.29-10.64S313.83 501.36 339.1 767.36z" fill="#FFFFFF" p-id="1560"></path></svg>